<svg width="555.9" height="102.005" viewBox="0 0 555.9 102.005" xmlns="http://www.w3.org/2000/svg">
	<g id="svgGroup" stroke-linecap="round" fill-rule="evenodd" font-size="9pt" stroke="#000" stroke-width="0.25mm" fill="none" style="stroke:#000;stroke-width:0.25mm;fill:none">
		<path d="M 0 99.753 L 22.05 2.253 L 37.8 2.253 L 59.85 99.753 L 49.35 99.753 L 44.25 77.253 L 15.6 77.253 L 10.5 99.753 L 0 99.753 Z M 42.15 68.253 L 29.85 13.953 L 17.55 68.253 L 42.15 68.253 Z" id="0" vector-effect="non-scaling-stroke"/>
		<path d="M 80.85 99.753 L 80.85 2.253 L 103.5 2.253 Q 111.429 2.253 116.775 4.802 A 18.295 18.295 0 0 1 121.275 7.803 A 18.183 18.183 0 0 1 126.856 17.96 A 26.966 26.966 0 0 1 127.35 23.253 L 127.35 32.253 A 23.174 23.174 0 0 1 126.599 38.38 Q 124.635 45.544 117.538 48.299 A 20.15 20.15 0 0 1 116.7 48.603 A 18.402 18.402 0 0 1 122.841 51.446 Q 127.242 54.682 128.42 60.584 A 23.866 23.866 0 0 1 128.85 65.253 L 128.85 78.753 A 26.936 26.936 0 0 1 128.145 85.105 A 17.749 17.749 0 0 1 122.85 94.278 Q 116.85 99.753 105 99.753 L 80.85 99.753 Z M 118.35 78.753 L 118.35 65.253 A 12.353 12.353 0 0 0 115.834 57.804 A 16.485 16.485 0 0 0 114.75 56.478 A 11.864 11.864 0 0 0 107.393 52.667 A 16.859 16.859 0 0 0 105 52.503 L 91.35 52.503 L 91.35 90.753 L 105 90.753 A 18.105 18.105 0 0 0 109.003 90.336 Q 111.799 89.702 113.836 88.105 A 10.99 10.99 0 0 0 114.825 87.228 Q 118.35 83.703 118.35 78.753 Z M 116.85 32.253 L 116.85 23.253 A 11.618 11.618 0 0 0 113.38 14.909 A 15.083 15.083 0 0 0 113.325 14.853 Q 109.84 11.293 103.641 11.253 A 21.889 21.889 0 0 0 103.5 11.253 L 91.35 11.253 L 91.35 45.003 L 103.5 45.003 A 16.327 16.327 0 0 0 107.628 44.51 A 11.361 11.361 0 0 0 113.325 41.103 A 13.802 13.802 0 0 0 116.01 36.836 A 12.563 12.563 0 0 0 116.85 32.253 Z" id="1" vector-effect="non-scaling-stroke"/>
		<path d="M 167.1 54.753 L 167.1 99.753 L 156.6 99.753 L 156.6 2.253 L 167.1 2.253 L 167.1 45.753 L 196.65 45.753 L 196.65 2.253 L 207.15 2.253 L 207.15 99.753 L 196.65 99.753 L 196.65 54.753 L 167.1 54.753 Z" id="2" vector-effect="non-scaling-stroke"/>
		<path d="M 250.65 90.753 L 258.15 90.753 L 258.15 99.753 L 232.65 99.753 L 232.65 90.753 L 240.15 90.753 L 240.15 11.253 L 232.65 11.253 L 232.65 2.253 L 258.15 2.253 L 258.15 11.253 L 250.65 11.253 L 250.65 90.753 Z" id="3" vector-effect="non-scaling-stroke"/>
		<path d="M 280.65 81.003 L 280.65 68.253 L 291.15 68.253 L 291.15 81.603 A 12.451 12.451 0 0 0 291.656 85.245 A 9.527 9.527 0 0 0 294.9 90.003 A 12.036 12.036 0 0 0 298.664 91.986 Q 301.722 93.003 306 93.003 A 28.897 28.897 0 0 0 310.047 92.738 Q 312.117 92.445 313.796 91.825 A 11.751 11.751 0 0 0 317.1 90.003 A 9.699 9.699 0 0 0 320.805 82.934 A 13.358 13.358 0 0 0 320.85 81.828 A 38.774 38.774 0 0 0 320.729 78.658 Q 320.481 75.644 319.725 73.578 A 13.006 13.006 0 0 0 318.491 71.118 Q 317.252 69.155 315.15 67.053 L 288.75 41.253 Q 285.11 37.613 283.263 34.111 A 18.706 18.706 0 0 1 282.375 32.178 A 22.624 22.624 0 0 1 281.258 28.199 Q 280.878 26.206 280.736 23.893 A 47.034 47.034 0 0 1 280.65 21.003 A 25.991 25.991 0 0 1 281.386 14.634 A 17.614 17.614 0 0 1 286.875 5.478 A 19.427 19.427 0 0 1 293.402 1.783 Q 298.514 0.003 305.7 0.003 Q 326.528 0.003 329.393 15.623 A 29.841 29.841 0 0 1 329.85 21.003 L 329.85 33.753 L 319.35 33.753 L 319.35 20.403 A 13.25 13.25 0 0 0 318.895 16.831 A 9.577 9.577 0 0 0 315.825 12.003 A 11.079 11.079 0 0 0 312.223 10.005 Q 309.326 9.003 305.25 9.003 A 26.473 26.473 0 0 0 301.375 9.267 Q 299.396 9.561 297.8 10.18 A 10.807 10.807 0 0 0 294.675 12.003 A 9.822 9.822 0 0 0 291.254 18.514 A 14.058 14.058 0 0 0 291.15 20.253 A 42.676 42.676 0 0 0 291.253 23.314 Q 291.478 26.44 292.2 28.503 Q 292.953 30.653 295.015 32.958 A 26.422 26.422 0 0 0 296.85 34.803 L 323.7 60.603 A 39.961 39.961 0 0 1 326.583 64.15 Q 327.952 66.061 328.866 67.909 A 20.381 20.381 0 0 1 329.7 69.828 A 23.427 23.427 0 0 1 330.768 73.807 Q 331.132 75.799 331.268 78.112 A 49.165 49.165 0 0 1 331.35 81.003 A 24.627 24.627 0 0 1 329.815 90.067 Q 325.57 100.84 309.587 101.889 A 54.781 54.781 0 0 1 306 102.003 A 44.704 44.704 0 0 1 296.59 101.103 Q 280.65 97.655 280.65 81.003 Z" id="4" vector-effect="non-scaling-stroke"/>
		<path d="M 368.85 54.753 L 368.85 99.753 L 358.35 99.753 L 358.35 2.253 L 368.85 2.253 L 368.85 45.753 L 398.4 45.753 L 398.4 2.253 L 408.9 2.253 L 408.9 99.753 L 398.4 99.753 L 398.4 54.753 L 368.85 54.753 Z" id="5" vector-effect="non-scaling-stroke"/>
		<path d="M 483.15 90.753 L 483.15 99.753 L 438.9 99.753 L 438.9 2.253 L 481.65 2.253 L 481.65 11.253 L 449.4 11.253 L 449.4 45.753 L 475.65 45.753 L 475.65 54.753 L 449.4 54.753 L 449.4 90.753 L 483.15 90.753 Z" id="6" vector-effect="non-scaling-stroke"/>
		<path d="M 516.3 62.253 L 516.3 99.753 L 505.8 99.753 L 505.8 2.253 L 516.3 2.253 L 516.3 43.653 L 542.4 2.253 L 554.1 2.253 L 527.55 44.253 L 555.9 99.753 L 544.35 99.753 L 521.25 54.303 L 516.3 62.253 Z" id="7" vector-effect="non-scaling-stroke"/>
	</g>
</svg>